name rise30.9205peak61.366fall85.3838.mot
datacolumns 19
datarows 36
range 5.61498300000000 5.67331200000000
endheader
time	ground_force1_vx	ground_force1_vy	ground_force1_vz	ground_force1_px	ground_force1_py	ground_force1_pz	ground_force2_vx	ground_force2_vy	ground_force2_vz	ground_force2_px	ground_force2_py	ground_force2_pz	ground_torque1_x	ground_torque1_y	ground_torque1_z	ground_torque2_x	ground_torque2_y	ground_torque2_z	
5.61498300000000	58.52181000000000	787.26636199999996	58.33465800000000	0.35114000000000	0.00000000000000	0.09278500000000	0.00000000000000	0.00000000000000	0.00000000000000	0.00000000000000	0.00000000000000	0.00000000000000	0.00000000000000	29.18441300000000	0.00000000000000	0.00000000000000	0.00000000000000	0.00000000000000	
5.61664200000000	57.77933300000000	788.98221899999999	58.29074600000000	0.34991000000000	0.00000000000000	0.09278300000000	0.00000000000000	0.00000000000000	0.00000000000000	0.00000000000000	0.00000000000000	0.00000000000000	0.00000000000000	29.11884800000000	0.00000000000000	0.00000000000000	0.00000000000000	0.00000000000000	
5.61831600000000	57.04314700000000	790.57967799999994	58.23603500000000	0.34871200000000	0.00000000000000	0.09277800000000	0.00000000000000	0.00000000000000	0.00000000000000	0.00000000000000	0.00000000000000	0.00000000000000	0.00000000000000	29.04767800000000	0.00000000000000	0.00000000000000	0.00000000000000	0.00000000000000	
5.61998000000000	56.31346900000000	792.05788600000005	58.17058200000000	0.34754500000000	0.00000000000000	0.09277100000000	0.00000000000000	0.00000000000000	0.00000000000000	0.00000000000000	0.00000000000000	0.00000000000000	0.00000000000000	28.97099300000000	0.00000000000000	0.00000000000000	0.00000000000000	0.00000000000000	
5.62164800000000	55.59044900000000	793.41610200000002	58.09442700000000	0.34641000000000	0.00000000000000	0.09276200000000	0.00000000000000	0.00000000000000	0.00000000000000	0.00000000000000	0.00000000000000	0.00000000000000	0.00000000000000	28.88886400000000	0.00000000000000	0.00000000000000	0.00000000000000	0.00000000000000	
5.62331000000000	54.87416700000000	794.65370499999995	58.00758800000000	0.34530400000000	0.00000000000000	0.09275100000000	0.00000000000000	0.00000000000000	0.00000000000000	0.00000000000000	0.00000000000000	0.00000000000000	0.00000000000000	28.80135000000000	0.00000000000000	0.00000000000000	0.00000000000000	0.00000000000000	
5.62498100000000	54.16464200000000	795.77020800000003	57.91007100000000	0.34422800000000	0.00000000000000	0.09273800000000	0.00000000000000	0.00000000000000	0.00000000000000	0.00000000000000	0.00000000000000	0.00000000000000	0.00000000000000	28.70849300000000	0.00000000000000	0.00000000000000	0.00000000000000	0.00000000000000	
5.62665000000000	53.46183200000000	796.76527199999998	57.80186900000000	0.34318000000000	0.00000000000000	0.09272200000000	0.00000000000000	0.00000000000000	0.00000000000000	0.00000000000000	0.00000000000000	0.00000000000000	0.00000000000000	28.61032500000000	0.00000000000000	0.00000000000000	0.00000000000000	0.00000000000000	
5.62831700000000	52.76564300000000	797.63870799999995	57.68296600000000	0.34216000000000	0.00000000000000	0.09270500000000	0.00000000000000	0.00000000000000	0.00000000000000	0.00000000000000	0.00000000000000	0.00000000000000	0.00000000000000	28.50686800000000	0.00000000000000	0.00000000000000	0.00000000000000	0.00000000000000	
5.62998100000000	52.07593300000000	798.39049599999998	57.55334200000000	0.34116600000000	0.00000000000000	0.09268600000000	0.00000000000000	0.00000000000000	0.00000000000000	0.00000000000000	0.00000000000000	0.00000000000000	0.00000000000000	28.39813400000000	0.00000000000000	0.00000000000000	0.00000000000000	0.00000000000000	
5.63164500000000	51.39251500000000	799.02078500000005	57.41297200000000	0.34019600000000	0.00000000000000	0.09266400000000	0.00000000000000	0.00000000000000	0.00000000000000	0.00000000000000	0.00000000000000	0.00000000000000	0.00000000000000	28.28412900000000	0.00000000000000	0.00000000000000	0.00000000000000	0.00000000000000	
5.63331300000000	50.71516400000000	799.52990699999998	57.26183400000000	0.33925000000000	0.00000000000000	0.09264100000000	0.00000000000000	0.00000000000000	0.00000000000000	0.00000000000000	0.00000000000000	0.00000000000000	0.00000000000000	28.16485800000000	0.00000000000000	0.00000000000000	0.00000000000000	0.00000000000000	
5.63497700000000	50.04361900000000	799.91837799999996	57.09990800000000	0.33832600000000	0.00000000000000	0.09261600000000	0.00000000000000	0.00000000000000	0.00000000000000	0.00000000000000	0.00000000000000	0.00000000000000	0.00000000000000	28.04031800000000	0.00000000000000	0.00000000000000	0.00000000000000	0.00000000000000	
5.63665200000000	49.37759200000000	800.18690800000002	56.92718400000000	0.33742300000000	0.00000000000000	0.09258800000000	0.00000000000000	0.00000000000000	0.00000000000000	0.00000000000000	0.00000000000000	0.00000000000000	0.00000000000000	27.91051100000000	0.00000000000000	0.00000000000000	0.00000000000000	0.00000000000000	
5.63831200000000	48.71677000000000	800.33640200000002	56.74366000000000	0.33653800000000	0.00000000000000	0.09255900000000	0.00000000000000	0.00000000000000	0.00000000000000	0.00000000000000	0.00000000000000	0.00000000000000	0.00000000000000	27.77543600000000	0.00000000000000	0.00000000000000	0.00000000000000	0.00000000000000	
5.63998100000000	48.06082400000000	800.36796400000003	56.54934700000000	0.33567000000000	0.00000000000000	0.09252800000000	0.00000000000000	0.00000000000000	0.00000000000000	0.00000000000000	0.00000000000000	0.00000000000000	0.00000000000000	27.63509800000000	0.00000000000000	0.00000000000000	0.00000000000000	0.00000000000000	
5.64165000000000	47.40940600000000	800.28290000000004	56.34427400000000	0.33481800000000	0.00000000000000	0.09249500000000	0.00000000000000	0.00000000000000	0.00000000000000	0.00000000000000	0.00000000000000	0.00000000000000	0.00000000000000	27.48950600000000	0.00000000000000	0.00000000000000	0.00000000000000	0.00000000000000	
5.64331800000000	46.76216400000000	800.08271999999999	56.12848600000000	0.33397900000000	0.00000000000000	0.09246100000000	0.00000000000000	0.00000000000000	0.00000000000000	0.00000000000000	0.00000000000000	0.00000000000000	0.00000000000000	27.33867600000000	0.00000000000000	0.00000000000000	0.00000000000000	0.00000000000000	
5.64498200000000	46.11873600000000	799.76913400000001	55.90205100000000	0.33315200000000	0.00000000000000	0.09242500000000	0.00000000000000	0.00000000000000	0.00000000000000	0.00000000000000	0.00000000000000	0.00000000000000	0.00000000000000	27.18263000000000	0.00000000000000	0.00000000000000	0.00000000000000	0.00000000000000	
5.64664800000000	45.47876500000000	799.34405500000003	55.66505800000000	0.33233400000000	0.00000000000000	0.09238700000000	0.00000000000000	0.00000000000000	0.00000000000000	0.00000000000000	0.00000000000000	0.00000000000000	0.00000000000000	27.02140400000000	0.00000000000000	0.00000000000000	0.00000000000000	0.00000000000000	
5.64831200000000	44.84189200000000	798.80959499999994	55.41762500000000	0.33152400000000	0.00000000000000	0.09234800000000	0.00000000000000	0.00000000000000	0.00000000000000	0.00000000000000	0.00000000000000	0.00000000000000	0.00000000000000	26.85504200000000	0.00000000000000	0.00000000000000	0.00000000000000	0.00000000000000	
5.64997900000000	44.20777200000000	798.16806099999997	55.15989400000000	0.33072100000000	0.00000000000000	0.09230700000000	0.00000000000000	0.00000000000000	0.00000000000000	0.00000000000000	0.00000000000000	0.00000000000000	0.00000000000000	26.68360100000000	0.00000000000000	0.00000000000000	0.00000000000000	0.00000000000000	
5.65165100000000	43.57606500000000	797.42195400000003	54.89203700000000	0.32992100000000	0.00000000000000	0.09226500000000	0.00000000000000	0.00000000000000	0.00000000000000	0.00000000000000	0.00000000000000	0.00000000000000	0.00000000000000	26.50715100000000	0.00000000000000	0.00000000000000	0.00000000000000	0.00000000000000	
5.65331100000000	42.94645200000000	796.57396000000006	54.61425500000000	0.32912300000000	0.00000000000000	0.09222200000000	0.00000000000000	0.00000000000000	0.00000000000000	0.00000000000000	0.00000000000000	0.00000000000000	0.00000000000000	26.32578000000000	0.00000000000000	0.00000000000000	0.00000000000000	0.00000000000000	
5.65497900000000	42.31862900000000	795.62694599999998	54.32678100000000	0.32832500000000	0.00000000000000	0.09217800000000	0.00000000000000	0.00000000000000	0.00000000000000	0.00000000000000	0.00000000000000	0.00000000000000	0.00000000000000	26.13958700000000	0.00000000000000	0.00000000000000	0.00000000000000	0.00000000000000	
5.65665100000000	41.69231400000000	794.58395199999995	54.02987900000000	0.32752500000000	0.00000000000000	0.09213300000000	0.00000000000000	0.00000000000000	0.00000000000000	0.00000000000000	0.00000000000000	0.00000000000000	0.00000000000000	25.94868900000000	0.00000000000000	0.00000000000000	0.00000000000000	0.00000000000000	
5.65831600000000	41.06724800000000	793.44818499999997	53.72384600000000	0.32672100000000	0.00000000000000	0.09208700000000	0.00000000000000	0.00000000000000	0.00000000000000	0.00000000000000	0.00000000000000	0.00000000000000	0.00000000000000	25.75322200000000	0.00000000000000	0.00000000000000	0.00000000000000	0.00000000000000	
5.65997900000000	40.44320000000000	792.22300900000005	53.40900900000000	0.32591100000000	0.00000000000000	0.09204000000000	0.00000000000000	0.00000000000000	0.00000000000000	0.00000000000000	0.00000000000000	0.00000000000000	0.00000000000000	25.55333500000000	0.00000000000000	0.00000000000000	0.00000000000000	0.00000000000000	
5.66165400000000	39.81996700000000	790.91193599999997	53.08572800000000	0.32509400000000	0.00000000000000	0.09199200000000	0.00000000000000	0.00000000000000	0.00000000000000	0.00000000000000	0.00000000000000	0.00000000000000	0.00000000000000	25.34919800000000	0.00000000000000	0.00000000000000	0.00000000000000	0.00000000000000	
5.66331200000000	39.19737500000000	789.51861599999995	52.75439600000000	0.32426700000000	0.00000000000000	0.09194400000000	0.00000000000000	0.00000000000000	0.00000000000000	0.00000000000000	0.00000000000000	0.00000000000000	0.00000000000000	25.14099600000000	0.00000000000000	0.00000000000000	0.00000000000000	0.00000000000000	
5.66497500000000	38.57528300000000	788.04682700000001	52.41543500000000	0.32342900000000	0.00000000000000	0.09189500000000	0.00000000000000	0.00000000000000	0.00000000000000	0.00000000000000	0.00000000000000	0.00000000000000	0.00000000000000	24.92893200000000	0.00000000000000	0.00000000000000	0.00000000000000	0.00000000000000	
5.66664800000000	37.95358300000000	786.50046399999997	52.06929600000000	0.32257900000000	0.00000000000000	0.09184700000000	0.00000000000000	0.00000000000000	0.00000000000000	0.00000000000000	0.00000000000000	0.00000000000000	0.00000000000000	24.71322700000000	0.00000000000000	0.00000000000000	0.00000000000000	0.00000000000000	
5.66831200000000	37.33219900000000	784.88352799999996	51.71646000000000	0.32171300000000	0.00000000000000	0.09179700000000	0.00000000000000	0.00000000000000	0.00000000000000	0.00000000000000	0.00000000000000	0.00000000000000	0.00000000000000	24.49411600000000	0.00000000000000	0.00000000000000	0.00000000000000	0.00000000000000	
5.66997700000000	36.71109200000000	783.20011099999999	51.35743300000000	0.32083200000000	0.00000000000000	0.09174800000000	0.00000000000000	0.00000000000000	0.00000000000000	0.00000000000000	0.00000000000000	0.00000000000000	0.00000000000000	24.27185200000000	0.00000000000000	0.00000000000000	0.00000000000000	0.00000000000000	
5.67165000000000	36.09025600000000	781.45439099999999	50.99274900000000	0.31993400000000	0.00000000000000	0.09169900000000	0.00000000000000	0.00000000000000	0.00000000000000	0.00000000000000	0.00000000000000	0.00000000000000	0.00000000000000	24.04670200000000	0.00000000000000	0.00000000000000	0.00000000000000	0.00000000000000	
5.67331200000000	35.46972000000000	779.65061100000003	50.62296100000000	0.31901600000000	0.00000000000000	0.09165100000000	0.00000000000000	0.00000000000000	0.00000000000000	0.00000000000000	0.00000000000000	0.00000000000000	0.00000000000000	23.81894700000000	0.00000000000000	0.00000000000000	0.00000000000000	0.00000000000000	
